<?xml version='1.0' encoding='UTF-8'?>
<svg x="0px" y="0px" viewBox="0 0 32 32" version="1.1" xmlns="http://www.w3.org/2000/svg" xmlns:xlink="http://www.w3.org/1999/xlink" xml:space="preserve" id="Layer_1" style="enable-background:new 0 0 32 32">
  <style type="text/css">
	.Blue{fill:#1177D7;}
	.Yellow{fill:#FFB115;}
	.Red{fill:#D11C1C;}
	.Green{fill:#039C23;}
	.Black{fill:#727272;}
	.White{fill:#FFFFFF;}
	.st0{opacity:0.5;}
	.st1{opacity:0.75;}
	.st2{display:none;}
	.st3{display:inline;fill:#FFB115;}
	.st4{display:inline;}
	.st5{display:inline;opacity:0.75;}
	.st6{display:inline;opacity:0.5;}
	.st7{display:inline;fill:#039C23;}
	.st8{display:inline;fill:#D11C1C;}
	.st9{display:inline;fill:#1177D7;}
	.st10{display:inline;fill:#FFFFFF;}
</style>
  <path d="M26.2,11.8l-1,0.8C25,12.8,23.4,14,21.4,14c-1.4,0-2.7-0.6-3.6-1.8C17.6,12,17.5,12,17.4,12c0,0-0.1,0-0.1,0  l1.2,3.6c0.2,0.5-0.1,1.1-0.6,1.3l-3.8,1.4c-0.5,0.2-1.1-0.1-1.3-0.6l-1.9-5.2L9.4,8C6.1,10.1,4,13.8,4,18c0,6.6,5.4,12,12,12  s12-5.4,12-12C28,15.7,27.3,13.6,26.2,11.8z" class="Blue" />
  <path d="M21.2,3c0,0-2.8,2.3-4.6,0c-1.8-2.2-4.5-0.1-4.6,0l-2,0.6l2.8,8.1l1.6,4.3l1.9-0.7L14.8,11  c0.1-0.1,2.8-2.2,4.6,0c1.8,2.3,4.6,0,4.6,0L21.2,3z" class="Red" />
</svg>