<?xml version='1.0' encoding='UTF-8'?>
<svg x="0px" y="0px" viewBox="0 0 32 32" version="1.1" xmlns="http://www.w3.org/2000/svg" xmlns:xlink="http://www.w3.org/1999/xlink" xml:space="preserve" id="Layer_1" style="enable-background:new 0 0 32 32">
  <style type="text/css">
	.Black{fill:#727272;}
</style>
  <g id="Photo">
    <path d="M29,8h-5l-4-4h-8L8,8H3C2.5,8,2,8.5,2,9v18c0,0.5,0.5,1,1,1h26c0.5,0,1-0.5,1-1V9C30,8.5,29.5,8,29,8z M8,14   c-1.1,0-2-0.9-2-2c0-1.1,0.9-2,2-2s2,0.9,2,2C10,13.1,9.1,14,8,14z M16,24c-3.3,0-6-2.7-6-6s2.7-6,6-6s6,2.7,6,6S19.3,24,16,24z" class="Black" />
    <circle cx="16" cy="18" r="4" class="Black" />
  </g>
</svg>